<svg xmlns="http://www.w3.org/2000/svg" width="232.619" height="55.465" viewBox="0 0 232.619 55.465"><defs><style>.a{fill:#1c1c1c;}</style></defs><g transform="translate(-731.394 -508.364)"><g transform="translate(796.918 526.768)"><g transform="translate(0 0)"><path class="a" d="M871.629,565.507h-2.745a1.229,1.229,0,0,1-.77-.231,1.3,1.3,0,0,1-.436-.593l-2.125-5.489H854.96l-2.125,5.489a1.34,1.34,0,0,1-.435.568,1.188,1.188,0,0,1-.77.256h-2.745l9.573-23.671h3.6Zm-7.046-8.819-3.565-9.181a20.155,20.155,0,0,1-.77-2.374q-.184.709-.376,1.318t-.376,1.088l-3.549,9.148Z" transform="translate(-848.884 -541.572)"/><path class="a" d="M905.934,545.484a1.347,1.347,0,0,1-.351.413.787.787,0,0,1-.469.132,1.241,1.241,0,0,1-.687-.273q-.385-.272-.962-.61a7.565,7.565,0,0,0-1.381-.61,6.048,6.048,0,0,0-1.925-.272,5.728,5.728,0,0,0-1.849.272,3.922,3.922,0,0,0-1.331.742,3.114,3.114,0,0,0-.812,1.1,3.418,3.418,0,0,0-.276,1.377,2.478,2.478,0,0,0,.494,1.582,4.23,4.23,0,0,0,1.3,1.071,10.172,10.172,0,0,0,1.824.775q1.021.331,2.092.684a21.4,21.4,0,0,1,2.092.816,7.391,7.391,0,0,1,1.824,1.162,5.366,5.366,0,0,1,1.3,1.714,5.64,5.64,0,0,1,.494,2.481,7.873,7.873,0,0,1-.544,2.935,6.89,6.89,0,0,1-1.582,2.39,7.354,7.354,0,0,1-2.553,1.608,9.5,9.5,0,0,1-3.439.585,11.243,11.243,0,0,1-4.3-.849,10.362,10.362,0,0,1-1.816-.972,8.9,8.9,0,0,1-1.514-1.278l1.021-1.681a1.35,1.35,0,0,1,.36-.33.876.876,0,0,1,.477-.132,1.387,1.387,0,0,1,.811.363q.461.362,1.138.8a8.809,8.809,0,0,0,1.624.8,6.439,6.439,0,0,0,2.3.362,6.259,6.259,0,0,0,1.975-.288,4.06,4.06,0,0,0,1.465-.824,3.585,3.585,0,0,0,.912-1.294,4.318,4.318,0,0,0,.318-1.682,2.793,2.793,0,0,0-.485-1.7,3.948,3.948,0,0,0-1.289-1.1,9.545,9.545,0,0,0-1.824-.758q-1.021-.312-2.092-.651a21.165,21.165,0,0,1-2.092-.783,6.809,6.809,0,0,1-1.824-1.162,5.251,5.251,0,0,1-1.288-1.8,6.475,6.475,0,0,1-.486-2.662,6.272,6.272,0,0,1,1.967-4.557,7.213,7.213,0,0,1,2.368-1.467,8.727,8.727,0,0,1,3.213-.553,10.547,10.547,0,0,1,3.724.635,8.653,8.653,0,0,1,2.954,1.821Z" transform="translate(-867.759 -541.363)"/><path class="a" d="M931.254,552.073h1.171a2.82,2.82,0,0,0,1.029-.157,1.8,1.8,0,0,0,.711-.535l7.649-8.753a2.17,2.17,0,0,1,.753-.618,2.324,2.324,0,0,1,.954-.173h3.046l-8.9,10.089a4.243,4.243,0,0,1-.661.692,3.982,3.982,0,0,1-.678.445,3.3,3.3,0,0,1,1.607,1.269l9.255,11.177h-3.1a2.9,2.9,0,0,1-.578-.05,1.6,1.6,0,0,1-.418-.139,1.449,1.449,0,0,1-.318-.223,1.616,1.616,0,0,1-.259-.313l-7.917-9.231a2.758,2.758,0,0,0-.335-.363,1.366,1.366,0,0,0-.385-.238,2.065,2.065,0,0,0-.5-.132,4.775,4.775,0,0,0-.67-.041h-1.456v10.731h-3.565V541.836h3.565Z" transform="translate(-883.74 -541.572)"/><path class="a" d="M1008.239,541.836v23.671h-3.113V548.66c0-.252.009-.521.025-.807s.036-.577.059-.873l-8,14.456a1.367,1.367,0,0,1-1.289.808h-.5a1.333,1.333,0,0,1-1.272-.808L986,546.929a16.056,16.056,0,0,1,.1,1.731v16.847h-3.129V541.836h2.643a2.329,2.329,0,0,1,.729.09,1.036,1.036,0,0,1,.493.5l8.034,14.177a9.805,9.805,0,0,1,.436.906c.134.32.262.637.384.956a15.74,15.74,0,0,1,.82-1.879l7.883-14.16a.97.97,0,0,1,.477-.5,2.321,2.321,0,0,1,.728-.09Z" transform="translate(-908.189 -541.572)"/><path class="a" d="M1056.429,565.507h-2.745a1.231,1.231,0,0,1-.77-.231,1.3,1.3,0,0,1-.434-.593l-2.126-5.489h-10.595l-2.125,5.489a1.337,1.337,0,0,1-.436.568,1.185,1.185,0,0,1-.77.256h-2.744l9.573-23.671h3.6Zm-7.047-8.819-3.565-9.181a20.154,20.154,0,0,1-.769-2.374q-.185.709-.377,1.318t-.377,1.088l-3.547,9.148Z" transform="translate(-930.621 -541.572)"/><path class="a" d="M1097.863,565.507h-3.179a1.49,1.49,0,0,1-1.389-.742l-5.941-8.21a1.762,1.762,0,0,0-.62-.584,2.26,2.26,0,0,0-1-.173H1083.4v9.709h-3.565V541.836h6.929a15.011,15.011,0,0,1,4.008.47,7.836,7.836,0,0,1,2.779,1.335,5.332,5.332,0,0,1,1.624,2.086,6.826,6.826,0,0,1,.527,2.737,6.932,6.932,0,0,1-.384,2.324,6.09,6.09,0,0,1-1.13,1.954,7.084,7.084,0,0,1-1.816,1.491,8.93,8.93,0,0,1-2.426.956,3.655,3.655,0,0,1,1.155,1.1Zm-11.213-12.264a8.048,8.048,0,0,0,2.419-.33,4.931,4.931,0,0,0,1.748-.931,3.822,3.822,0,0,0,1.055-1.434,4.678,4.678,0,0,0,.351-1.838,3.634,3.634,0,0,0-1.364-3.082,6.707,6.707,0,0,0-4.092-1.039H1083.4v8.654Z" transform="translate(-951.035 -541.572)"/><path class="a" d="M1122.919,556.144v9.363h-3.547v-9.363l-8.8-14.308h3.13a1.189,1.189,0,0,1,.753.222,1.729,1.729,0,0,1,.469.586l5.222,8.851q.317.611.578,1.155t.459,1.07q.184-.526.427-1.07t.561-1.155l5.2-8.851a2.124,2.124,0,0,1,.461-.552,1.09,1.09,0,0,1,.745-.256h3.146Z" transform="translate(-964.627 -541.572)"/></g></g><path d="M787.909,541.942a11.267,11.267,0,0,1-3.541-4.551c-.016-4.349.373-11.805-.825-14.425-1.486-3.247-6.754-12.044-17.168-14.081s-18.4,2.285-20.565,6.341c-1.177,2.2-3.761,4.368-4.319,8.829,0,2.789-1.156,6.092-3.5,7.411-2.456,1.383-4.576,2.578-5.316,4.026a6.371,6.371,0,0,0-.63,4.927c.073,1.7,2.191,4.734,2.191,5.944,0,2.231-1.342,2.784-2.039,4.782a6.817,6.817,0,0,0-.749,4.141c.558,4.462,7.3,4.794,8.624,3.844,1.954,1.969,5.773,3.724,10.739,2.859,5.411-.943,5.6-1.324,9.638-.568,8.923,1.673,9.333-1.674,11.563-1.674,2.937,0,3.6,1.007,4.324,1.651a3.949,3.949,0,0,0,1.393,1.955,2.662,2.662,0,0,0,.865.391,3.507,3.507,0,0,0,1.881-.1c3.094-.939,2.84-2.779,3.1-3.885a6.621,6.621,0,0,1,1.744-3.779,9.118,9.118,0,0,1,1.862-1.3c1.734-1,3.7-2.14,4.252-5.9C791.911,545.582,789.876,543.732,787.909,541.942Zm-12.685-2.449a10.567,10.567,0,0,1-.336-2.17,40.074,40.074,0,0,0-1.059-6.337,5.529,5.529,0,0,1,1.487.42c.089.845.124,1.688.237,2.781a17.391,17.391,0,0,0,1.454,5.995,3.871,3.871,0,0,1-.553.825A2.894,2.894,0,0,1,775.224,539.492Zm.815,1.913a3.246,3.246,0,0,1-.344.24,5.243,5.243,0,0,1-3.468,1.1h-.107a7.7,7.7,0,0,1-5.107-1.465c-1.348-1.1-2.442-4.212-2.442-5.655,0-1.386,2.618-4.808,6.57-4.808a20.447,20.447,0,0,1,2.088.093,39.08,39.08,0,0,1,1.1,6.472,10.292,10.292,0,0,0,.375,2.324A3.453,3.453,0,0,0,776.039,541.406Zm-30.491-5.2c0-.009,0-.385.058-.9a12.569,12.569,0,0,0,1.679-3.038c.05-.2.1-.381.146-.568a3.626,3.626,0,0,1,1.047-.5c-.817,2.347-1.792,4.943-2.79,7.1A13.763,13.763,0,0,1,745.548,536.21Zm1.5.837a15.766,15.766,0,0,1-.962,2.768q-.1-.253-.18-.517A19.41,19.41,0,0,0,747.051,537.047Zm1.05-2.523c.009-.069.543-1.8,1.069-3.5a16.149,16.149,0,0,1,2.949-.213c3.952,0,6.57,3.422,6.57,4.808,0,1.443-1.094,4.551-2.442,5.655a7.707,7.707,0,0,1-5.107,1.465h-.106a5.243,5.243,0,0,1-3.468-1.1,3.372,3.372,0,0,1-1.164-1.2A18.29,18.29,0,0,0,748.1,534.524Zm25.566-8.861a24.457,24.457,0,0,1,1.354,3.951,11.435,11.435,0,0,0-1.632-.162,29.821,29.821,0,0,0-1.835-4.491c-2.327-4.59-4.627-6.339-6.874-7.492C768.678,518.253,771.748,521.1,773.666,525.663Zm-17.315-6.089a9.709,9.709,0,0,1,6.59-2.309c2.745,1.23,5.348,2.5,8.113,7.949a29.229,29.229,0,0,1,1.742,4.231,13.309,13.309,0,0,0-6.6,1.737,14.157,14.157,0,0,0-2.728,2.29c-.685.706-1.1,1.133-1.82,1.182-.758-.05-1.172-.476-1.857-1.182a14.148,14.148,0,0,0-2.729-2.29,13.577,13.577,0,0,0-7.407-1.722c.262-.842.467-1.5.518-1.665A28.366,28.366,0,0,1,756.351,519.574Zm-7.3,9.931a10.5,10.5,0,0,0-1.053.159,11.273,11.273,0,0,1,2.585-4.916C750.451,525.136,749.875,527.053,749.055,529.5Zm-14.56,28.861c-1.331-.433-2.219-2.3-2.539-3.189a3.077,3.077,0,0,1-.074-1.659,5.812,5.812,0,0,0,1.8,3.441,8.416,8.416,0,0,0,6.692,1.115C739.035,559.019,737.03,559.19,734.495,558.366Zm6.439-27.618c-2.788,3.346-6.947,2.723-8.465,6.891a6.9,6.9,0,0,1,.708-1.893c.664-1.3,2.716-2.455,5.092-3.794,1.684-.948,2.664-2.877,3.779-5.666A8.129,8.129,0,0,1,740.934,530.748Zm34.2,18.857c-3.065,5.023-7.387,10.123-13.94,9.728-5.314-.32-9.6-5.282-12.436-10.019a29.754,29.754,0,0,1-3.108-6.953,9.367,9.367,0,0,0,5.488,1.737,8.646,8.646,0,0,0,6.045-1.995,7.816,7.816,0,0,0,1.857-2.844c.674-1.433,1.31-2.786,2.588-2.948,1.278.162,1.914,1.515,2.588,2.948a7.823,7.823,0,0,0,1.858,2.844,8.646,8.646,0,0,0,6.045,1.995,9.339,9.339,0,0,0,5.676-1.877C776.681,545.692,775.894,548.362,775.135,549.605Zm5.182,13.5a2.551,2.551,0,0,1-2.269-.215,2.809,2.809,0,0,1-.779-.859,4.568,4.568,0,0,0,3.738.056,2.828,2.828,0,0,0,1.672-1.406A2.894,2.894,0,0,1,780.318,563.109ZM790.889,548.7c-.514,3.5-2.277,4.515-3.98,5.5-.115.066-.226.134-.339.2,1.361-1.575,2.949-3.238,2.9-4.648-.132-4.058-4.594-6.9-5-9.878-.04-.29-.066-.655-.083-1.077a14.83,14.83,0,0,0,3.14,3.558C789.479,544.124,791.316,545.8,790.889,548.7Z"/></g></svg>