<svg xmlns="http://www.w3.org/2000/svg" xmlns:xlink="http://www.w3.org/1999/xlink" width="156" height="156" viewBox="0 0 156 156"><defs><style>.a{fill:#ebedf0;opacity:0.421;}.b{fill:#dadddf;}.c{fill:#99d5fc;}.d{fill:url(#a);}.e,.f{stroke:rgba(0,0,0,0);stroke-miterlimit:10;}.e{opacity:0.038;}.f{fill:url(#b);}.g{fill:#3285a8;}.h{fill:#82c6cc;}.i{fill:#76a8c3;}.j{fill:#c1c7c9;}.k{fill:#84bfe5;}</style><linearGradient id="a" x1="-0.574" y1="-2.216" x2="1.128" y2="1.864" gradientUnits="objectBoundingBox"><stop offset="0" stop-color="#8fe6b9"/><stop offset="1" stop-color="#1671bc"/></linearGradient><linearGradient id="b" y1="0.5" x2="0.995" y2="0.652" gradientUnits="objectBoundingBox"><stop offset="0" stop-color="#3a94bb"/><stop offset="1" stop-color="#2c82b3"/></linearGradient></defs><g transform="translate(15.832 19.829)"><circle class="a" cx="78" cy="78" r="78" transform="translate(-15.832 -19.829)"/><path class="b" d="M227.445,505.616l-5.774-19.246H200.286l-5.774,19.246h-7.057v4.277H234.5v-4.277Z" transform="translate(-148.962 -383.722)"/><path class="c" d="M11.481,81.062a6.415,6.415,0,0,0-6.415,6.415v66.293H129.1V87.477a6.415,6.415,0,0,0-6.415-6.415Z" transform="translate(-5.066 -63.954)"/><path class="b" d="M5.066,425.573v6.415a6.415,6.415,0,0,0,6.415,6.415h111.2a6.415,6.415,0,0,0,6.415-6.415v-6.415Z" transform="translate(-5.066 -335.756)"/><path class="d" d="M157.818,0H72.278a6.415,6.415,0,0,0-6.415,6.415V83.4h98.371V6.415A6.415,6.415,0,0,0,157.818,0Z" transform="translate(-53.032)"/><path class="e" d="M181.8,0h-2.139l-83.4,83.4h91.955V6.415A6.415,6.415,0,0,0,181.8,0Z" transform="translate(-77.014)"/><rect class="f" width="98.371" height="6.415" transform="translate(12.831 83.401)"/><rect class="g" width="4.277" height="4.277" transform="translate(19.247 6.415)"/><rect class="g" width="4.277" height="4.277" transform="translate(27.8 6.415)"/><rect class="g" width="4.277" height="4.277" transform="translate(36.354 6.415)"/><rect class="g" width="85.54" height="4.277" transform="translate(19.247 14.969)"/><path class="h" d="M108.532,121.592H125.64a2.139,2.139,0,0,1,2.139,2.139v12.831a2.139,2.139,0,0,1-2.139,2.139H108.532a2.139,2.139,0,0,1-2.139-2.139V123.731A2.139,2.139,0,0,1,108.532,121.592Z" transform="translate(-85.008 -95.93)"/><path class="h" d="M250.39,121.592H267.5a2.139,2.139,0,0,1,2.139,2.139v12.831A2.139,2.139,0,0,1,267.5,138.7H250.39a2.139,2.139,0,0,1-2.139-2.139V123.731A2.139,2.139,0,0,1,250.39,121.592Z" transform="translate(-196.927 -95.93)"/><path class="h" d="M392.248,121.592h17.108a2.139,2.139,0,0,1,2.139,2.139v12.831a2.139,2.139,0,0,1-2.139,2.139H392.248a2.139,2.139,0,0,1-2.139-2.139V123.731A2.139,2.139,0,0,1,392.248,121.592Z" transform="translate(-308.846 -95.93)"/><path class="h" d="M108.532,243.185H125.64a2.139,2.139,0,0,1,2.139,2.139v12.831a2.139,2.139,0,0,1-2.139,2.139H108.532a2.139,2.139,0,0,1-2.139-2.139V245.324A2.139,2.139,0,0,1,108.532,243.185Z" transform="translate(-85.008 -191.861)"/><path class="i" d="M250.39,243.185H267.5a2.139,2.139,0,0,1,2.139,2.139v12.831a2.139,2.139,0,0,1-2.139,2.139H250.39a2.139,2.139,0,0,1-2.139-2.139V245.324A2.139,2.139,0,0,1,250.39,243.185Z" transform="translate(-196.927 -191.861)"/><path class="h" d="M392.248,243.185h17.108a2.139,2.139,0,0,1,2.139,2.139v12.831a2.139,2.139,0,0,1-2.139,2.139H392.248a2.139,2.139,0,0,1-2.139-2.139V245.324A2.139,2.139,0,0,1,392.248,243.185Z" transform="translate(-308.846 -191.861)"/><path class="i" d="M125.64,364.777H108.532a2.139,2.139,0,0,0-2.139,2.139v4.277h21.385v-4.277A2.139,2.139,0,0,0,125.64,364.777Z" transform="translate(-85.008 -287.791)"/><path class="h" d="M267.5,364.777H250.389a2.139,2.139,0,0,0-2.139,2.139v4.277h21.385v-4.277A2.139,2.139,0,0,0,267.5,364.777Z" transform="translate(-196.926 -287.791)"/><path class="h" d="M409.355,364.777H392.247a2.139,2.139,0,0,0-2.139,2.139v4.277h21.385v-4.277A2.139,2.139,0,0,0,409.355,364.777Z" transform="translate(-308.845 -287.791)"/><path class="j" d="M264.366,492.785l-1.925-6.415H241.057l-1.925,6.415Z" transform="translate(-189.733 -383.722)"/><rect class="k" width="6.415" height="72.709" transform="translate(111.202 17.108)"/></g></svg>